# xmcd CD database file
#
# Track frame offsets:
#	150
#	87515
#	189077
#
# Disc length: 4038 seconds
#
# Revision: 0
# Processed by: cddbd v1.5.2PL0 Copyright (c) Steve Scherf et al.
# Submitted via: CDex 1.51
#
DISCID=1a0fc403
DTITLE=Jhadten Jewall - Initiations
DYEAR=2004
DGENRE=New Age
TTITLE0=Initiation Of The Magdalen Flame
TTITLE1=Initiation Of The New Cosmic Father Energies
TTITLE2=Initiation Into The Twin Flame Energy And The Eightfold Seal Of Infinity
EXTD=YEAR: 2004
EXTT0=
EXTT1=
EXTT2=
PLAYORDER=
